Coordinates
version=1
nRows=14
nColumns=36
inDegrees=yes

Units are S.I. units (second, meters, Newtons, ...)
If the header above contains a line with 'inDegrees', this indicates whether rotational values are in degrees (yes) or radians (no).

endheader
time	pelvis_tilt	pelvis_list	pelvis_rotation	pelvis_tx	pelvis_ty	pelvis_tz	hip_flexion_r	hip_adduction_r	hip_rotation_r	knee_angle_r	knee_angle_r_beta	ankle_angle_r	subtalar_angle_r	mtp_angle_r	hip_flexion_l	hip_adduction_l	hip_rotation_l	knee_angle_l	knee_angle_l_beta	ankle_angle_l	subtalar_angle_l	mtp_angle_l	lumbar_extension	lumbar_bending	lumbar_rotation	arm_flex_r	arm_add_r	arm_rot_r	elbow_flex_r	pro_sup_r	arm_flex_l	arm_add_l	arm_rot_l	elbow_flex_l	pro_sup_l
      2.43333330	     -3.72719514	     -4.99841305	      2.05570968	      0.59311950	      0.78978649	     -0.39207880	     61.95044055	     -0.65545431	      7.63955890	     16.57170628	      0.28923084	    -15.64600507	    -20.86929840	     -7.49999933	     38.79683578	      2.08752600	     -2.32573374	     60.11121603	      1.04913864	     28.76921287	     -7.64764268	     -7.49999933	    -26.69448365	      0.04403779	      2.95427759	     73.19013930	     11.42440449	     68.25819893	    134.20161509	    100.27272654	     92.48699542	     16.69862303	     73.37444672	    121.50002500	     77.44982434
      2.45000000	     -3.11946823	     -5.13040413	      2.41355176	      0.59499716	      0.80179902	     -0.38932107	     61.41589486	     -1.30943693	      7.41659319	     16.14990077	      0.28186894	    -16.20733603	    -21.15905395	     -7.49999938	     36.76023631	      1.62077294	     -2.41313257	     57.95022672	      1.01142226	     28.56144406	     -5.89154627	     -7.49999938	    -26.20271283	      0.25251621	      2.46404221	     73.14037001	     11.49350322	     68.87949978	    133.33723206	     97.83537137	     92.46115418	     16.43810019	     73.50860233	    121.58136742	     77.01906594
      2.46666670	     -2.64507339	     -5.30778474	      2.81410525	      0.59935790	      0.80961291	     -0.39235850	     60.80774015	     -2.13911584	      6.75223597	     15.73179795	      0.27457167	    -16.45339628	    -21.83758194	     -7.49999941	     34.66232942	      1.46961575	     -2.27028873	     55.36353338	      0.96627594	     27.82179714	     -5.43663675	     -7.49999941	    -25.58956871	      0.79779456	      2.38340363	     72.39385921	     11.62503063	     70.02437041	    132.04430986	     98.75488318	     91.59456063	     16.71214154	     73.76070985	    122.03924113	     77.16367315
      2.48333330	     -1.91774107	     -5.87816911	      2.87807366	      0.60441728	      0.81680937	     -0.39082773	     60.64091905	     -2.40164654	      5.31371845	     16.34220395	      0.28522527	    -16.64209127	    -21.70302319	     -7.49999943	     32.45704516	      0.42470758	     -2.44177665	     53.39360773	      0.93189425	     27.71989102	     -4.18548550	     -7.49999943	    -25.08000882	      1.35219585	      2.70525488	     72.12542358	     11.68680551	     70.52328599	    131.37816774	     99.14949798	     91.41991456	     16.94514795	     73.63587531	    121.94914834	     77.20168464
      2.50000000	     -1.16815927	     -6.11019256	      3.13068834	      0.60405330	      0.82957337	     -0.39024639	     60.29765496	     -3.13251271	      4.07573544	     16.59893544	      0.28970608	    -16.51430547	    -20.88740207	     -7.49999945	     30.03795826	     -0.01678026	     -2.44937753	     50.87006636	      0.88785015	     26.71869842	     -3.72471642	     -7.49999945	    -24.84159351	      1.56286043	      2.41845901	     71.65699366	     12.56187505	     71.15551870	    131.25428923	     97.08062157	     90.91902597	     16.90044297	     74.03798628	    122.34529143	     76.48562006
      2.51666670	     -0.77039224	     -6.42437916	      3.27191784	      0.60687637	      0.83309752	     -0.39219501	     60.17387462	     -3.61219112	      3.72907762	     16.32054591	      0.28484726	    -16.44412480	    -20.79816039	     -7.49999947	     28.03896387	     -0.17199146	     -2.14338869	     48.28420233	      0.84271831	     25.92327941	     -4.18295778	     -7.49999947	    -24.45761872	      2.04141468	      2.50370349	     71.37563971	     12.65847734	     71.01111172	    130.86175207	     97.78158157	     90.47967624	     16.76888393	     73.57396076	    122.60457690	     76.57071381
      2.53333330	      0.23208858	     -6.74597420	      3.33105676	      0.60624842	      0.84450969	     -0.39227654	     59.26687596	     -3.97881559	      2.60618050	     15.44803342	      0.26961905	    -16.56797194	    -19.40247663	     -7.49999950	     26.01855008	     -0.62170747	     -2.16914935	     46.19803752	      0.80630786	     24.47446871	     -3.93744933	     -7.49999950	    -24.65316283	      2.06104707	      2.25672315	     71.09756070	     12.39638800	     70.18655582	    130.79774380	     96.54277765	     90.14525027	     16.83923549	     72.94790585	    122.27639463	     76.39822612
      2.55000000	      1.01222136	     -6.52798487	      3.66462561	      0.60502934	      0.85995781	     -0.39109418	     58.73206021	     -4.78499794	      1.73482671	     15.01184003	      0.26200604	    -17.12911979	    -19.50816293	     -7.49999953	     23.45311538	     -0.02111328	     -1.47569600	     42.78156912	      0.74667924	     22.33915591	     -5.36494398	     -7.49999953	    -25.05040117	      1.97555919	      1.91299532	     70.76912900	     12.74438132	     70.63582167	    130.80521984	     94.63644886	     89.55912072	     16.12713439	     73.39717496	    123.31596048	     75.83658239
      2.56666670	      1.33526862	     -6.58084987	      4.04144989	      0.60580880	      0.85787510	     -0.39205144	     58.70381033	     -5.54551450	      1.71513499	     14.59175761	      0.25467421	    -17.09956640	    -19.53341878	     -7.49999955	     21.90186792	      0.17603489	     -0.77838175	     40.17450809	      0.70117744	     20.92911693	     -5.99850263	     -7.49999955	    -24.80425833	      1.79353016	      1.23834332	     70.27715979	     12.24563302	     68.98251761	    130.74807315	     95.47292199	     89.74814457	     15.54416117	     72.81961512	    123.27222356	     75.93812761
      2.58333330	      1.93787596	     -6.44893407	      4.51329204	      0.60483556	      0.86697165	     -0.39171786	     58.91375920	     -6.39684140	      1.29670332	     15.33709762	      0.26768285	    -17.81398314	    -19.02608544	     -7.49999962	     19.97157872	      0.42980324	      0.03932281	     37.59363161	      0.65613265	     20.03142275	     -5.47433617	     -7.49999962	    -24.85244543	      1.30169162	      0.72688440	     70.30635434	     11.71385169	     67.67355770	    130.77303133	    100.20169886	     89.63818406	     15.50645913	     72.28650608	    123.81333215	     77.19259894
      2.60000000	      2.43709022	     -6.61175808	      4.70650614	      0.61162699	      0.87778941	     -0.39085088	     58.76153155	     -6.75579456	      0.72907342	     16.14322125	      0.28175236	    -17.93412276	    -19.43167432	     -7.49999968	     17.64584553	      0.30712744	      1.02822030	     34.63288494	      0.60445787	     18.61671825	     -6.15075813	     -7.49999968	    -24.38035530	      1.13134401	      0.73349218	     69.74925702	     11.35206375	     66.64112219	    130.85251425	    100.25180828	     89.13760444	     15.30770293	     72.10641024	    123.79870368	     77.34888717
      2.61666670	      3.05868265	     -7.07482297	      4.63591279	      0.60975345	      0.88601447	     -0.38998441	     58.18600671	     -6.70264447	     -0.24504193	     15.90085912	      0.27752235	    -18.18503599	    -18.83403967	     -7.49999968	     15.54114960	     -0.30158182	      1.21321023	     32.13142050	      0.56079908	     17.38543246	     -6.11079063	     -7.49999968	    -24.24239703	      1.40617444	      1.15308300	     69.13538002	     10.54818312	     65.09474505	    131.56591602	    100.15477462	     88.48726615	     14.69552956	     71.98131564	    123.97471713	     77.36000864
      2.63333330	      3.88683026	     -7.63769448	      5.14673854	      0.61294715	      0.89666745	     -0.38728235	     56.90235638	     -6.83452156	     -0.85782711	     15.16418681	      0.26466499	    -18.59558947	    -18.95374473	     -7.49999972	     11.66328481	     -0.84451781	      2.92444286	     26.87290890	      0.46902074	     15.01150207	     -7.61635713	     -7.49999972	    -24.50639046	      1.84221682	      1.18385587	     68.11795444	      9.91711903	     63.87639628	    132.05531115	    100.10761370	     87.72330332	     14.74316411	     71.63417154	    123.91055740	     77.79264979
      2.65000000	      4.15821502	     -8.60996174	      5.22988912	      0.61837933	      0.90004306	     -0.38627025	     56.61474044	     -6.42872776	     -1.16246799	     14.90414470	      0.26012640	    -18.73455414	    -19.99209676	     -7.49999972	      8.81954597	     -1.96264341	      3.65874051	     22.21260444	      0.38768308	     12.98565838	     -8.57380436	     -7.49999972	    -23.86948931	      2.50875988	      1.76294153	     67.06827636	      9.37772425	     63.79794738	    131.78178681	    100.12668073	     86.83638908	     14.67599170	     71.57866556	    123.34903945	     77.83193895
